<svg xmlns="http://www.w3.org/2000/svg" viewBox="0 0 490.667 490.667"><path d="M245.333 0C110.059 0 0 110.059 0 245.333s110.059 245.333 245.333 245.333 245.333-110.059 245.333-245.333S380.608 0 245.333 0zm163.115 267.968L290.197 386.219c-9.152 9.131-21.291 14.165-34.219 14.165s-25.067-5.035-34.219-14.165c-9.152-9.131-14.144-21.312-14.144-34.219s5.013-25.067 14.165-34.219l19.115-19.115H117.333C87.915 298.667 64 274.731 64 245.333S87.915 192 117.333 192h123.584l-19.115-19.115c-9.152-9.152-14.187-21.312-14.187-34.219s5.013-25.067 14.165-34.219c18.283-18.261 50.133-18.261 68.416 0l118.251 118.251c12.481 12.481 12.481 32.79.001 45.27z"/></svg>